<svg width="24" height="24" viewBox="0 0 24 24" fill="none" xmlns="http://www.w3.org/2000/svg">
<path d="M16.9997 14.8352C16.8123 15.0214 16.5589 15.126 16.2947 15.126C16.0305 15.126 15.7771 15.0214 15.5897 14.8352L11.9997 11.2952L8.4597 14.8352C8.27234 15.0214 8.01889 15.126 7.7547 15.126C7.49052 15.126 7.23707 15.0214 7.0497 14.8352C6.95598 14.7422 6.88158 14.6316 6.83081 14.5098C6.78004 14.3879 6.75391 14.2572 6.75391 14.1252C6.75391 13.9932 6.78004 13.8625 6.83081 13.7406C6.88158 13.6187 6.95598 13.5081 7.0497 13.4152L11.2897 9.17518C11.3827 9.08146 11.4933 9.00706 11.6151 8.95629C11.737 8.90552 11.8677 8.87939 11.9997 8.87939C12.1317 8.87939 12.2624 8.90552 12.3843 8.95629C12.5061 9.00706 12.6167 9.08146 12.7097 9.17518L16.9997 13.4152C17.0934 13.5081 17.1678 13.6187 17.2186 13.7406C17.2694 13.8625 17.2955 13.9932 17.2955 14.1252C17.2955 14.2572 17.2694 14.3879 17.2186 14.5098C17.1678 14.6316 17.0934 14.7422 16.9997 14.8352Z" fill="#212329"/>
</svg>
